<?xml version="1.0" encoding="UTF-8" standalone="no"?>
<!-- Created with Inkscape (http://www.inkscape.org/) -->

<svg
   xmlns:dc="http://purl.org/dc/elements/1.1/"
   xmlns:cc="http://creativecommons.org/ns#"
   xmlns:rdf="http://www.w3.org/1999/02/22-rdf-syntax-ns#"
   xmlns:svg="http://www.w3.org/2000/svg"
   xmlns="http://www.w3.org/2000/svg"
   xmlns:sodipodi="http://sodipodi.sourceforge.net/DTD/sodipodi-0.dtd"
   xmlns:inkscape="http://www.inkscape.org/namespaces/inkscape"
   width="73.51712mm"
   height="30.55673mm"
   viewBox="0 0 73.51712 30.55673"
   version="1.1"
   id="svg4579"
   inkscape:version="0.92.0 r15299"
   sodipodi:docname="lmu_text_logo.svg">
  <defs
     id="defs4573" />
  <sodipodi:namedview
     id="base"
     pagecolor="#ffffff"
     bordercolor="#666666"
     borderopacity="1.0"
     inkscape:pageopacity="0.0"
     inkscape:pageshadow="2"
     inkscape:zoom="0.98994949"
     inkscape:cx="83.198059"
     inkscape:cy="26.494883"
     inkscape:document-units="mm"
     inkscape:current-layer="layer1"
     showgrid="false"
     fit-margin-top="0"
     fit-margin-left="0"
     fit-margin-right="0"
     fit-margin-bottom="0"
     inkscape:window-width="1305"
     inkscape:window-height="758"
     inkscape:window-x="281"
     inkscape:window-y="114"
     inkscape:window-maximized="0" />
  <metadata
     id="metadata4576">
    <rdf:RDF>
      <cc:Work
         rdf:about="">
        <dc:format>image/svg+xml</dc:format>
        <dc:type
           rdf:resource="http://purl.org/dc/dcmitype/StillImage" />
        <dc:title></dc:title>
      </cc:Work>
    </rdf:RDF>
  </metadata>
  <g
     inkscape:label="Ebene 1"
     inkscape:groupmode="layer"
     id="layer1"
     transform="translate(-1.9849521,-2.0415077)">
    <path
       inkscape:connector-curvature="0"
       style="fill:#6a6a6a;fill-opacity:0.93856656;stroke:none;stroke-width:0.26458332;stroke-opacity:1"
       d="M 48.112412,20.991495 V 2.5709344 h 10.20604 V 22.004325 c 0,1.37874 0.31511,2.36061 0.94667,2.9456 0.63448,0.58605 1.4822,0.87842 2.54133,0.87842 1.06151,0 1.91611,-0.29237 2.56328,-0.87842 0.64691,-0.58499 0.97473,-1.56686 0.97473,-2.9456 V 2.5709344 h 10.15761 V 20.991495 c 0,2.19842 -0.33072,4.06585 -0.99324,5.60599 -0.6604,1.53988 -1.59068,2.79056 -2.7813,3.76 -1.1938,0.96943 -2.63763,1.67216 -4.33044,2.10846 -1.69386,0.44238 -3.55838,0.66146 -5.59038,0.66146 -2.00184,0 -3.8436,-0.21908 -5.52212,-0.66146 -1.67746,-0.43603 -3.12234,-1.13903 -4.32832,-2.10846 -1.20914,-0.96944 -2.15291,-2.22012 -2.82786,-3.76 -0.67892,-1.54014 -1.016,-3.40757 -1.016,-5.60599 z m -18.0258,4.61671 c 0,0.20373 0.10028,0.30692 0.30797,0.30692 0.14473,0 0.22014,-0.10345 0.22014,-0.30692 0.26458,-1.93569 0.60351,-4.0513 1.016,-6.35317 0.41434,-2.30055 0.82259,-4.54343 1.23719,-6.72835 0.41249,-2.180701 0.81015,-4.1682506 1.19168,-5.9531306 0.38338,-1.79123 0.67787,-3.12129 0.88583,-4.00288 h 9.54246 V 32.336295 h -5.74225 V 7.2762844 c 0,-0.1479 -0.10531,-0.22013 -0.31009,-0.22013 -0.11668,0 -0.17674,0.0722 -0.17674,0.22013 -0.23469,1.16999 -0.48684,2.48259 -0.75036,3.9346206 -0.26776,1.44992 -0.59002,3.14907 -0.97473,5.09852 -0.38232,1.95025 -0.84534,4.2291 -1.38906,6.83578 -0.54478,2.61064 -1.18639,5.67214 -1.92246,9.19109 h -5.96662 c -0.734749,-3.45916 -1.361283,-6.44921 -1.876955,-8.97096 -0.51779,-2.51883 -0.966259,-4.73048 -1.348846,-6.63839 -0.381265,-1.90368 -0.721519,-3.60389 -1.016,-5.09932 -0.292365,-1.494361 -0.588169,-2.9456006 -0.883709,-4.3510706 0,-0.1479 -0.103452,-0.22013 -0.310091,-0.22013 -0.115888,0 -0.175684,0.0722 -0.175684,0.22013 V 32.336565 H 16.38781 V 2.5709344 h 9.585854 c 0.147903,0.644 0.326496,1.47797 0.531284,2.5064 0.203729,1.02844 0.435234,2.17567 0.683154,3.45202 0.25215,1.27132 0.50747,2.6376306 0.77523,4.0846406 0.26352,1.45521 0.52917,2.93317 0.79481,4.4442 0.26564,1.50892 0.50747,2.99006 0.72972,4.44209 0.22066,1.4486 0.42016,2.81914 0.59875,4.10792 z M 1.9849521,2.5709344 h 2.915708 V 30.138145 h 8.4822769 v 2.19842 H 1.9849521 Z"
       id="path6" />
  </g>
</svg>
