<?xml version="1.0" encoding="UTF-8" standalone="no"?>
<!-- Created with Inkscape (http://www.inkscape.org/) -->

<svg
   xmlns:dc="http://purl.org/dc/elements/1.1/"
   xmlns:cc="http://creativecommons.org/ns#"
   xmlns:rdf="http://www.w3.org/1999/02/22-rdf-syntax-ns#"
   xmlns:svg="http://www.w3.org/2000/svg"
   xmlns="http://www.w3.org/2000/svg"
   xmlns:sodipodi="http://sodipodi.sourceforge.net/DTD/sodipodi-0.dtd"
   xmlns:inkscape="http://www.inkscape.org/namespaces/inkscape"
   width="48.50024mm"
   height="23.000158mm"
   viewBox="0 0 171.85124 81.496622"
   id="svg2"
   version="1.1"
   inkscape:version="0.91 r13725"
   sodipodi:docname="Logo_cmyk_inv.svg">
  <defs
     id="defs4">
    <clipPath
       id="clipPath3352"
       clipPathUnits="userSpaceOnUse">
      <path
         inkscape:connector-curvature="0"
         id="path3354"
         d="m 0,0 1374.81,0 0,651.973 L 0,651.973 0,0 Z" />
    </clipPath>
  </defs>
  <sodipodi:namedview
     id="base"
     pagecolor="#ffffff"
     bordercolor="#666666"
     borderopacity="1.0"
     inkscape:pageopacity="0.0"
     inkscape:pageshadow="2"
     inkscape:zoom="0.35"
     inkscape:cx="320.92551"
     inkscape:cy="-524.96601"
     inkscape:document-units="px"
     inkscape:current-layer="layer1"
     showgrid="false"
     fit-margin-top="0"
     fit-margin-left="0"
     fit-margin-right="0"
     fit-margin-bottom="0"
     inkscape:window-width="1600"
     inkscape:window-height="838"
     inkscape:window-x="-8"
     inkscape:window-y="-8"
     inkscape:window-maximized="1" />
  <metadata
     id="metadata7">
    <rdf:RDF>
      <cc:Work
         rdf:about="">
        <dc:format>image/svg+xml</dc:format>
        <dc:type
           rdf:resource="http://purl.org/dc/dcmitype/StillImage" />
        <dc:title></dc:title>
      </cc:Work>
    </rdf:RDF>
  </metadata>
  <g
     inkscape:label="Layer 1"
     inkscape:groupmode="layer"
     id="layer1"
     transform="translate(-54.074493,-154.47098)">
    <g
       transform="matrix(1.25,0,0,-1.25,54.074371,235.96761)"
       inkscape:label="Dokument0"
       id="g3344">
      <g
         transform="scale(0.1,0.1)"
         id="g3346">
        <g
           id="g3348">
          <g
             clip-path="url(#clipPath3352)"
             id="g3350">
            <path
               inkscape:connector-curvature="0"
               id="path3356"
               style="fill:#009f54;fill-opacity:1;fill-rule:nonzero;stroke:none"
               d="M 649.055,651.973 0,651.973 0,0 l 651.973,0 0,651.973 -2.918,0" />
            <path
               inkscape:connector-curvature="0"
               id="path3358"
               style="fill:#009f54;fill-opacity:1;fill-rule:nonzero;stroke:none"
               d="m 1371.9,651.973 -649.064,0 0,-651.973 651.974,0 0,651.973 -2.91,0" />
            <path
               inkscape:connector-curvature="0"
               id="path3360"
               style="fill:#ffffff;fill-opacity:1;fill-rule:nonzero;stroke:none"
               d="m 394.297,135.527 0,138.868 76.965,0 0,-146.504 c 0,-10.391 2.39,-17.793 7.156,-22.207 4.785,-4.414 11.16,-6.6215 19.16,-6.6215 8.008,0 14.453,2.2075 19.336,6.6215 4.883,4.414 7.344,11.816 7.344,22.207 l 0,146.504 76.621,0 0,-138.868 c 0,-16.582 -2.5,-30.664 -7.5,-42.2653 C 588.391,81.6602 581.387,72.2266 572.395,64.9219 563.398,57.6172 552.52,52.3242 539.746,49.0234 526.965,45.7031 512.91,44.043 497.578,44.043 c -15.105,0 -28.984,1.6601 -41.64,4.9804 -12.668,3.3008 -23.567,8.5938 -32.668,15.8985 -9.11,7.3047 -16.219,16.7383 -21.329,28.3398 -5.105,11.6013 -7.644,25.6833 -7.644,42.2653 z M 258.34,100.723 c 0,-1.5433 0.762,-2.3246 2.312,-2.3246 1.106,0 1.672,0.7813 1.672,2.3246 1.992,14.59 4.551,30.547 7.656,47.89 3.125,17.344 6.211,34.258 9.329,50.723 3.113,16.445 6.113,31.426 8.992,44.883 2.89,13.496 5.117,23.535 6.679,30.176 l 71.973,0 0,-224.395 -43.301,0 0,188.926 c 0,1.113 -0.8,1.66 -2.351,1.66 -0.879,0 -1.328,-0.547 -1.328,-1.66 -1.782,-8.828 -3.664,-18.731 -5.664,-29.668 -2.004,-10.938 -4.454,-23.75 -7.336,-38.438 -2.891,-14.707 -6.387,-31.875 -10.489,-51.543 C 292.383,99.6094 287.539,76.5234 281.98,50 l -44.988,0 c -5.554,26.0742 -10.273,48.6133 -14.172,67.637 -3.894,18.984 -7.273,35.664 -10.164,50.039 -2.883,14.355 -5.429,27.168 -7.656,38.437 -2.219,11.27 -4.434,22.207 -6.672,32.813 0,1.113 -0.769,1.66 -2.332,1.66 -0.879,0 -1.328,-0.547 -1.328,-1.66 l 0,-188.926 -39.648,0 0,224.395 72.304,0 c 1.114,-4.864 2.449,-11.153 4.004,-18.907 1.543,-7.734 3.281,-16.386 5.156,-26.015 1.895,-9.59 3.829,-19.883 5.84,-30.801 1.992,-10.957 3.992,-22.109 5.996,-33.496 2.012,-11.367 3.828,-22.539 5.508,-33.477 1.66,-10.937 3.164,-21.25 4.512,-30.976 z m -211.9533,173.672 21.9805,0 0,-207.813 63.9958,0 0,-16.582 -85.9763,0 0,224.395" />
            <path
               inkscape:connector-curvature="0"
               id="path3362"
               style="fill:#ffffff;fill-opacity:1;fill-rule:nonzero;stroke:none"
               d="m 770.805,312.832 0,47.656 8.886,0 0,-40.586 23.692,0 0,-7.07 -32.578,0" />
            <path
               inkscape:connector-curvature="0"
               id="path3364"
               style="fill:#ffffff;fill-opacity:1;fill-rule:nonzero;stroke:none"
               d="m 835.824,311.875 c -10.254,0 -19.922,3.672 -19.922,20.02 l 0,28.593 8.907,0 0,-29.414 c 0,-7.558 3.632,-12.656 11.015,-12.656 7.266,0 10.821,4.766 10.821,12.656 l 0,29.414 8.906,0 0,-28.593 c 0,-15.184 -9.863,-20.02 -19.727,-20.02" />
            <path
               inkscape:connector-curvature="0"
               id="path3366"
               style="fill:#ffffff;fill-opacity:1;fill-rule:nonzero;stroke:none"
               d="m 887.66,353.75 -5.058,0 0,-34.109 5.058,0 c 10.137,0 15.684,4.492 15.684,17.363 0,11.16 -5.352,16.746 -15.684,16.746 z m 0.41,-40.918 -14.375,0 0,47.656 14.375,0 c 16.973,0 24.571,-9.804 24.571,-23.484 0,-15.664 -9.161,-24.172 -24.571,-24.172" />
            <path
               inkscape:connector-curvature="0"
               id="path3368"
               style="fill:#ffffff;fill-opacity:1;fill-rule:nonzero;stroke:none"
               d="m 974.32,312.832 -9.453,0 -9.238,33.438 -9.238,-33.438 -9.453,0 -14.512,47.656 9.922,0 9.726,-37.304 9.18,33.429 9.434,0 9.121,-33.429 9.648,37.304 9.316,0 -14.453,-47.656" />
            <path
               inkscape:connector-curvature="0"
               id="path3370"
               style="fill:#ffffff;fill-opacity:1;fill-rule:nonzero;stroke:none"
               d="m 1002.25,312.832 8.9102,0 0,47.6563 -8.9102,0 0,-47.6563 z" />
            <path
               inkscape:connector-curvature="0"
               id="path3372"
               style="fill:#ffffff;fill-opacity:1;fill-rule:nonzero;stroke:none"
               d="m 1050.86,311.875 c -14.51,0 -23.2,9.941 -23.2,25.195 0,16.485 12.11,24.375 23.2,24.375 7.82,0 12.88,-2.453 16.1,-5.312 l -3.63,-6.668 c -2.6,2.93 -6.16,5.586 -12.47,5.586 -8,0 -13.96,-7.16 -13.96,-17.981 0,-11.093 5.96,-18.789 14.37,-18.789 4.87,0 7.68,1.223 8.83,2.305 l 0,12.129 -10.68,0 0,6.535 19.26,0 0,-22.883 c -4.12,-2.519 -9.67,-4.492 -17.82,-4.492" />
            <path
               inkscape:connector-curvature="0"
               id="path3374"
               style="fill:#ffffff;fill-opacity:1;fill-rule:nonzero;stroke:none"
               d="m 1080.92,331.211 18.6875,0 0,5.92969 -18.6875,0 0,-5.92969 z" />
            <path
               inkscape:connector-curvature="0"
               id="path3376"
               style="fill:#ffffff;fill-opacity:1;fill-rule:nonzero;stroke:none"
               d="m 814.008,225.273 -1.641,36.231 -12.129,-29.688 -8.086,0 -12.382,29.688 -1.446,-36.231 -8.691,0 2.812,47.668 11.094,0 13.066,-31.593 12.403,31.593 11.094,0 2.793,-47.668 -8.887,0" />
            <path
               inkscape:connector-curvature="0"
               id="path3378"
               style="fill:#ffffff;fill-opacity:1;fill-rule:nonzero;stroke:none"
               d="m 857.953,264.094 -7.461,-20.84 15.059,0 -7.598,20.84 z m 14.102,-38.821 -4.18,11.582 -19.57,0 -4.239,-11.582 -9.394,0 19.043,47.668 9.316,0 18.887,-47.668 -9.863,0" />
            <path
               inkscape:connector-curvature="0"
               id="path3380"
               style="fill:#ffffff;fill-opacity:1;fill-rule:nonzero;stroke:none"
               d="m 925.668,225.273 -12.949,19.211 -13.203,-19.211 -10.684,0 18.359,24.719 -16.914,22.949 11.153,0 11.777,-17.707 11.504,17.707 10.684,0 -16.856,-22.949 18.281,-24.719 -11.152,0" />
            <path
               inkscape:connector-curvature="0"
               id="path3382"
               style="fill:#ffffff;fill-opacity:1;fill-rule:nonzero;stroke:none"
               d="m 949.906,225.273 8.90625,0 0,47.668 -8.90625,0 0,-47.668 z" />
            <path
               inkscape:connector-curvature="0"
               id="path3384"
               style="fill:#ffffff;fill-opacity:1;fill-rule:nonzero;stroke:none"
               d="m 1021.12,225.273 -1.66,36.231 -12.11,-29.688 -8.088,0 -12.383,29.688 -1.445,-36.231 -8.692,0 2.813,47.668 11.093,0 13.072,-31.593 12.4,31.593 11.09,0 2.79,-47.668 -8.88,0" />
            <path
               inkscape:connector-curvature="0"
               id="path3386"
               style="fill:#ffffff;fill-opacity:1;fill-rule:nonzero;stroke:none"
               d="m 1047.95,225.273 8.8906,0 0,47.668 -8.8906,0 0,-47.668 z" />
            <path
               inkscape:connector-curvature="0"
               id="path3388"
               style="fill:#ffffff;fill-opacity:1;fill-rule:nonzero;stroke:none"
               d="m 1108.54,225.273 0,7.082 -23.69,0 0,40.586 -8.91,0 0,-47.668 32.6,0" />
            <path
               inkscape:connector-curvature="0"
               id="path3390"
               style="fill:#ffffff;fill-opacity:1;fill-rule:nonzero;stroke:none"
               d="m 1123.68,225.273 8.8789,0 0,47.668 -8.8789,0 0,-47.668 z" />
            <path
               inkscape:connector-curvature="0"
               id="path3392"
               style="fill:#ffffff;fill-opacity:1;fill-rule:nonzero;stroke:none"
               d="m 1169.07,264.094 -7.46,-20.84 15.06,0 -7.6,20.84 z m 14.1,-38.821 -4.18,11.582 -19.59,0 -4.24,-11.582 -9.37,0 19.02,47.668 9.32,0 18.9,-47.668 -9.86,0" />
            <path
               inkscape:connector-curvature="0"
               id="path3394"
               style="fill:#ffffff;fill-opacity:1;fill-rule:nonzero;stroke:none"
               d="m 1234.71,225.273 -19.98,35.547 0,-35.547 -8.77,0 0,47.668 11.64,0 20,-35.546 0,35.546 8.75,0 0,-47.668 -11.64,0" />
            <path
               inkscape:connector-curvature="0"
               id="path3396"
               style="fill:#ffffff;fill-opacity:1;fill-rule:nonzero;stroke:none"
               d="m 1297.09,238.488 c 0,7.215 -4.37,10.625 -9.78,12.938 l -9.45,4.015 c -2.95,1.231 -6.04,2.86 -6.04,6.27 0,2.723 2.4,5.781 7.68,5.781 5.95,0 9.31,-2.648 12.05,-5.988 l 3.77,5.918 c -3.44,4.094 -9.46,6.476 -15.82,6.476 -7.68,0 -16.78,-4.492 -16.78,-13.695 0,-5.848 3.96,-9.734 9.1,-11.91 l 9.45,-4.016 c 3.7,-1.574 6.51,-3.339 6.51,-7.089 0,-3.055 -2.81,-6.465 -8.83,-6.465 -6.09,0 -10.06,2.726 -13.5,6.601 l -3.75,-5.984 c 2.25,-2.656 7.66,-7.012 17.11,-7.012 14.38,0 18.28,9.258 18.28,14.16" />
            <path
               inkscape:connector-curvature="0"
               id="path3398"
               style="fill:#ffffff;fill-opacity:1;fill-rule:nonzero;stroke:none"
               d="m 1308.52,243.66 18.6914,0 0,5.92969 -18.6914,0 0,-5.92969 z" />
            <path
               inkscape:connector-curvature="0"
               id="path3400"
               style="fill:#ffffff;fill-opacity:1;fill-rule:nonzero;stroke:none"
               d="m 790.043,136.77 c -10.273,0 -19.922,3.679 -19.922,20.015 l 0,28.606 8.887,0 0,-29.414 c 0,-7.559 3.633,-12.664 11.035,-12.664 7.246,0 10.82,4.765 10.82,12.664 l 0,29.414 8.887,0 0,-28.606 c 0,-15.183 -9.844,-20.015 -19.707,-20.015" />
            <path
               inkscape:connector-curvature="0"
               id="path3402"
               style="fill:#ffffff;fill-opacity:1;fill-rule:nonzero;stroke:none"
               d="m 856.664,137.727 -20,35.546 0,-35.546 -8.769,0 0,47.664 11.64,0 20,-35.547 0,35.547 8.75,0 0,-47.664 -11.621,0" />
            <path
               inkscape:connector-curvature="0"
               id="path3404"
               style="fill:#ffffff;fill-opacity:1;fill-rule:nonzero;stroke:none"
               d="m 887.387,137.727 8.90625,0 0,47.6641 -8.90625,0 0,-47.6641 z" />
            <path
               inkscape:connector-curvature="0"
               id="path3406"
               style="fill:#ffffff;fill-opacity:1;fill-rule:nonzero;stroke:none"
               d="m 936.605,137.727 -9.433,0 -19.043,47.664 10.059,0 13.906,-38.68 13.906,38.68 9.648,0 -19.043,-47.664" />
            <path
               inkscape:connector-curvature="0"
               id="path3408"
               style="fill:#ffffff;fill-opacity:1;fill-rule:nonzero;stroke:none"
               d="m 968.852,137.727 0,47.664 32.108,0 0,-6.942 -23.202,0 0,-12.531 21.367,0 0,-6.816 -21.367,0 0,-14.297 24.102,0 0,-7.078 -33.008,0" />
            <path
               inkscape:connector-curvature="0"
               id="path3410"
               style="fill:#ffffff;fill-opacity:1;fill-rule:nonzero;stroke:none"
               d="m 1033.7,178.652 -7.68,0 0,-13.828 7.68,0 c 6.85,0 8.55,3.34 8.55,7.285 0,3.614 -2.81,6.543 -8.55,6.543 z m 11.01,-40.925 -9.65,14.363 c -2.46,3.683 -4.59,6.203 -6.83,6.203 l -2.21,0 0,-20.566 -8.89,0 0,47.664 18.29,0 c 8.41,0 16.01,-4.422 16.01,-13.282 0,-8.984 -8.09,-12.324 -12.19,-12.8 1.37,-0.879 3.15,-3.196 3.77,-4.082 l 12.33,-17.5 -10.63,0" />
            <path
               inkscape:connector-curvature="0"
               id="path3412"
               style="fill:#ffffff;fill-opacity:1;fill-rule:nonzero;stroke:none"
               d="m 1081.9,136.77 c -9.45,0 -14.86,4.363 -17.13,7.011 l 3.77,5.996 c 3.44,-3.879 7.4,-6.601 13.5,-6.601 6.01,0 8.82,3.398 8.82,6.465 0,3.75 -2.81,5.515 -6.5,7.078 l -9.45,4.023 c -5.14,2.18 -9.1,6.055 -9.1,11.914 0,9.192 9.1,13.692 16.77,13.692 6.37,0 12.39,-2.383 15.82,-6.473 l -3.77,-5.922 c -2.73,3.332 -6.09,5.988 -12.05,5.988 -5.27,0 -7.67,-3.066 -7.67,-5.789 0,-3.398 3.08,-5.039 6.03,-6.261 l 9.44,-4.024 c 5.41,-2.312 9.8,-5.711 9.8,-12.929 0,-4.903 -3.91,-14.168 -18.28,-14.168" />
            <path
               inkscape:connector-curvature="0"
               id="path3414"
               style="fill:#ffffff;fill-opacity:1;fill-rule:nonzero;stroke:none"
               d="m 1116.2,137.727 8.9023,0 0,47.6641 -8.9023,0 0,-47.6641 z" />
            <path
               inkscape:connector-curvature="0"
               id="path3416"
               style="fill:#ffffff;fill-opacity:1;fill-rule:nonzero;stroke:none"
               d="m 1163.36,178.313 0,-40.586 -8.88,0 0,40.586 -16.1,0 0,7.078 41.08,0 0,-7.078 -16.1,0" />
            <path
               inkscape:connector-curvature="0"
               id="path3418"
               style="fill:#ffffff;fill-opacity:1;fill-rule:nonzero;stroke:none"
               d="m 1216.57,189.746 c -2.54,0 -4.65,2.18 -4.65,4.563 0,2.39 2.05,4.57 4.65,4.57 2.6,0 4.65,-2.18 4.65,-4.57 0,-2.383 -2.11,-4.563 -4.65,-4.563 z m -6.72,-13.211 -7.46,-20.832 15.06,0 -7.6,20.832 z m -6.51,13.211 c -2.51,0 -4.64,2.18 -4.64,4.563 0,2.39 2.05,4.57 4.64,4.57 2.62,0 4.67,-2.18 4.67,-4.57 0,-2.383 -2.13,-4.563 -4.67,-4.563 z m 20.63,-52.019 -4.18,11.57 -19.59,0 -4.24,-11.57 -9.37,0 19.02,47.664 9.32,0 18.88,-47.664 -9.84,0" />
            <path
               inkscape:connector-curvature="0"
               id="path3420"
               style="fill:#ffffff;fill-opacity:1;fill-rule:nonzero;stroke:none"
               d="m 1265.92,178.313 0,-40.586 -8.88,0 0,40.586 -16.1,0 0,7.078 41.08,0 0,-7.078 -16.1,0" />
            <path
               inkscape:connector-curvature="0"
               id="path3422"
               style="fill:#ffffff;fill-opacity:1;fill-rule:nonzero;stroke:none"
               d="m 814.008,50.1758 -1.641,36.2226 -12.129,-29.6875 -8.086,0 -12.382,29.6875 -1.446,-36.2226 -8.691,0 2.812,47.668 11.094,0 13.066,-31.6016 12.403,31.6016 11.094,0 2.793,-47.668 -8.887,0" />
            <path
               inkscape:connector-curvature="0"
               id="path3424"
               style="fill:#ffffff;fill-opacity:1;fill-rule:nonzero;stroke:none"
               d="m 865.766,102.199 c -2.539,0 -4.668,2.176 -4.668,4.559 0,2.383 2.07,4.562 4.668,4.562 2.597,0 4.726,-2.179 4.726,-4.562 0,-2.383 -2.207,-4.559 -4.726,-4.559 z m -13.223,0 c -2.52,0 -4.648,2.176 -4.648,4.559 0,2.383 2.05,4.562 4.648,4.562 2.598,0 4.727,-2.179 4.727,-4.562 0,-2.383 -2.188,-4.559 -4.727,-4.559 z m 7.266,-52.9802 c -10.274,0 -19.922,3.6718 -19.922,20.0195 l 0,28.6055 8.886,0 0,-29.4258 c 0,-7.5586 3.633,-12.6641 11.036,-12.6641 7.246,0 10.82,4.7656 10.82,12.6641 l 0,29.4258 8.887,0 0,-28.6055 c 0,-15.1836 -9.844,-20.0195 -19.707,-20.0195" />
            <path
               inkscape:connector-curvature="0"
               id="path3426"
               style="fill:#ffffff;fill-opacity:1;fill-rule:nonzero;stroke:none"
               d="m 926.43,50.1758 -20,35.539 0,-35.539 -8.77,0 0,47.668 11.641,0 20,-35.5469 0,35.5469 8.75,0 0,-47.668 -11.621,0" />
            <path
               inkscape:connector-curvature="0"
               id="path3428"
               style="fill:#ffffff;fill-opacity:1;fill-rule:nonzero;stroke:none"
               d="m 977.016,49.2188 c -15.469,0 -22.735,11.9843 -22.735,25.1289 0,12.8711 8.828,24.4414 22.735,24.4414 6.855,0 12.187,-2.2461 15.82,-6.0547 L 989.34,86.125 c -2.676,2.9961 -5.332,6.1328 -12.188,6.1328 -8.086,0 -13.554,-7.832 -13.554,-17.9101 0,-9.875 5.879,-18.5938 13.632,-18.5938 5.684,0 9.434,1.9141 13.477,6.1992 l 3.418,-6.8047 c -5.547,-4.2304 -9.57,-5.9296 -17.109,-5.9296" />
            <path
               inkscape:connector-curvature="0"
               id="path3430"
               style="fill:#ffffff;fill-opacity:1;fill-rule:nonzero;stroke:none"
               d="m 1038.29,50.1758 0,21.582 -21.35,0 0,-21.582 -8.91,0 0,47.668 8.91,0 0,-19.5508 21.35,0 0,19.5508 8.9,0 0,-47.668 -8.9,0" />
            <path
               inkscape:connector-curvature="0"
               id="path3432"
               style="fill:#ffffff;fill-opacity:1;fill-rule:nonzero;stroke:none"
               d="m 1066.02,50.1758 0,47.668 32.11,0 0,-6.9532 -23.2,0 0,-12.5312 21.36,0 0,-6.8047 -21.36,0 0,-14.2969 24.1,0 0,-7.082 -33.01,0" />
            <path
               inkscape:connector-curvature="0"
               id="path3434"
               style="fill:#ffffff;fill-opacity:1;fill-rule:nonzero;stroke:none"
               d="m 1143.05,50.1758 -20,35.539 0,-35.539 -8.77,0 0,47.668 11.64,0 20,-35.5469 0,35.5469 8.77,0 0,-47.668 -11.64,0" />
          </g>
        </g>
      </g>
    </g>
  </g>
</svg>
