<?xml version="1.0" encoding="UTF-8" standalone="no"?>
<!DOCTYPE svg PUBLIC "-//W3C//DTD SVG 1.1//EN" "http://www.w3.org/Graphics/SVG/1.1/DTD/svg11.dtd">
<svg version="1.1" xmlns="http://www.w3.org/2000/svg" xmlns:xlink="http://www.w3.org/1999/xlink" preserveAspectRatio="xMidYMid meet" viewBox="0 0 640 260" width="640" height="260"><defs><path d="M0 0L640 0L640 260L0 260L0 0Z" id="cQ2zQKUSE"></path><path d="M355.44 110.57C365.23 100.78 370.13 88.97 370.13 75.13C370.13 61.29 365.23 49.48 355.44 39.69C345.65 29.9 333.84 25 320 25C306.16 25 294.35 29.9 284.56 39.69C274.77 49.48 269.87 61.29 269.87 75.13C269.87 88.97 274.77 100.78 284.56 110.57C294.35 120.36 306.16 125.25 320 125.25C333.84 125.25 345.65 120.36 355.44 110.57Z" id="dBn4Qwwl1"></path><path d="M409.61 163.95C408.69 158.86 407.54 154.14 406.15 149.79C404.75 145.44 402.88 141.2 400.53 137.06C398.19 132.93 395.49 129.41 392.44 126.49C389.39 123.58 385.67 121.25 381.28 119.51C376.88 117.77 372.03 116.9 366.72 116.9C365.94 116.9 364.11 117.83 361.24 119.7C358.37 121.58 355.13 123.66 351.52 125.97C347.91 128.27 343.21 130.37 337.42 132.23C331.63 134.1 325.83 135.04 319.99 135.04C314.16 135.04 308.36 134.1 302.57 132.23C296.78 130.37 292.08 128.27 288.47 125.97C284.86 123.66 281.62 121.58 278.75 119.7C275.88 117.83 274.05 116.9 273.27 116.9C267.96 116.9 263.11 117.77 258.71 119.51C254.32 121.25 250.6 123.58 247.55 126.49C244.51 129.41 241.81 132.93 239.46 137.06C237.11 141.2 235.24 145.44 233.85 149.79C232.45 154.14 231.3 158.86 230.39 163.95C229.47 169.05 228.86 173.79 228.56 178.18C228.25 182.58 228.1 187.08 228.1 191.7C228.1 202.14 231.28 210.38 237.63 216.43C243.99 222.48 252.43 225.5 262.96 225.5C274.37 225.5 365.63 225.5 377.04 225.5C387.57 225.5 396.01 222.48 402.37 216.43C408.72 210.38 411.9 202.14 411.9 191.7C411.9 187.08 411.74 182.58 411.44 178.18C411.13 173.79 410.52 169.05 409.61 163.95Z" id="af7wnVQ0y"></path></defs><g><g><use xlink:href="#cQ2zQKUSE" opacity="1" fill="#574d63" fill-opacity="1"></use><g><use xlink:href="#cQ2zQKUSE" opacity="1" fill-opacity="0" stroke="#634980" stroke-width="1" stroke-opacity="1"></use></g></g><g><use xlink:href="#dBn4Qwwl1" opacity="1" fill="#ffffff" fill-opacity="1"></use><g><use xlink:href="#dBn4Qwwl1" opacity="1" fill-opacity="0" stroke="#000000" stroke-width="1" stroke-opacity="0"></use></g></g><g><use xlink:href="#af7wnVQ0y" opacity="1" fill="#ffffff" fill-opacity="1"></use><g><use xlink:href="#af7wnVQ0y" opacity="1" fill-opacity="0" stroke="#000000" stroke-width="1" stroke-opacity="0"></use></g></g></g></svg>